<?xml version="1.0" encoding="utf-8"?>
<!-- Generator: Adobe Illustrator 25.3.1, SVG Export Plug-In . SVG Version: 6.00 Build 0)  -->
<svg version="1.1" id="Layer_1" xmlns="http://www.w3.org/2000/svg" xmlns:xlink="http://www.w3.org/1999/xlink" x="0px" y="0px"
	 viewBox="0 0 24 24" style="enable-background:new 0 0 24 24;" xml:space="preserve">
<style type="text/css">
	.st0{fill:#FFFFFF;}
</style>
<path class="st0" d="M12,21c-1.2,0-2.4-0.2-3.5-0.7s-2-1.1-2.9-1.9c-0.8-0.8-1.5-1.8-1.9-2.9C3.2,14.4,3,13.2,3,12s0.2-2.4,0.7-3.5
	s1.1-2,1.9-2.9c0.8-0.8,1.8-1.5,2.9-1.9C9.6,3.2,10.8,3,12,3s2.4,0.2,3.5,0.7s2,1.1,2.9,1.9c0.8,0.8,1.5,1.8,1.9,2.9
	C20.8,9.6,21,10.8,21,12s-0.2,2.4-0.7,3.5s-1.1,2-1.9,2.9c-0.8,0.8-1.8,1.5-2.9,1.9C14.4,20.8,13.2,21,12,21z M11,20v-2
	c-0.6,0-1-0.2-1.4-0.6S9,16.6,9,16v-1l-4.8-4.8c-0.1,0.3-0.1,0.6-0.1,0.9C4,11.4,4,11.7,4,12c0,2,0.7,3.8,2,5.3
	C7.3,18.8,9,19.7,11,20z M17.9,17.4c0.3-0.4,0.6-0.8,0.9-1.2c0.3-0.4,0.5-0.9,0.7-1.3c0.2-0.5,0.3-0.9,0.4-1.4s0.1-1,0.1-1.5
	c0-1.6-0.5-3.1-1.4-4.5S16.5,5.2,15,4.6V5c0,0.5-0.2,1-0.6,1.4S13.6,7,13,7h-2v2c0,0.3-0.1,0.5-0.3,0.7S10.3,10,10,10H8v2h6
	c0.3,0,0.5,0.1,0.7,0.3S15,12.7,15,13v3h1c0.4,0,0.8,0.1,1.2,0.4C17.5,16.6,17.8,17,17.9,17.4z"/>
</svg>
